# xmcd CD database file
#
# Track frame offsets:
#	150
#	12978
#	24500
#	34802
#	47053
#	60259
#	73673
#	88160
#	102602
#	114152
#	127679
#	146182
#	159224
#	172546
#	186260
#	199550
#	212787
#	228475
#	240576
#	255178
#	270864
#
# Disc length: 3764 seconds
#
# Revision: 0
# Processed by: cddbd v1.5.1PL2 Copyright (c) Steve Scherf et al.
# Submitted via: CDex 1.51
#
DISCID=0b0eb215
DTITLE=Various Artist - The Cradle Of Jazz - CD 2
DYEAR=2004
DGENRE=Jazz
TTITLE0=Eddie Condon - Baby - Won'T You Please Come Home?
TTITLE1=Bill Coleman - Baby Brown
TTITLE2='Jell Roll' Morton - Ballin' The Jack
TTITLE3=Bill Coleman - Believe It, Beloved
TTITLE4=Bill Coleman - Between The Devil And The Deep Blue Sea
TTITLE5=Eddie Condon - Ballin' The Jack
TTITLE6=Red Nichols - Dinah
TTITLE7=Fats Waller - Do Me A Favor
TTITLE8=Bill Coleman - Beale Street Blues
TTITLE9='Jelly Roll' Morton - Blue Blodd Blues
TTITLE10=Eddie Condon - Emraceable You
TTITLE11=Bill Coleman - Bill Street Blues
TTITLE12=Bill Coleman - Georgia On My Mind
TTITLE13=Fats Waller - Dream Man
TTITLE14=Bill Coleman - I Believe In Miracles
TTITLE15=Eddie Condon - Georgia Grind
TTITLE16=Eddie Condon - I Must Habe That Man
TTITLE17=Bill Coleman - I Never Knew
TTITLE18='Jelly Roll' Morton - I thought, I Heard Buddy Bolden Say
TTITLE19=Fats Waller - Let'S Pretend There'S A Moon
TTITLE20=J.C. Higginbotham - Let That Be A Lesson To You
EXTD=YEAR: 2004
EXTT0=
EXTT1=
EXTT2=
EXTT3=
EXTT4=
EXTT5=
EXTT6=
EXTT7=
EXTT8=
EXTT9=
EXTT10=
EXTT11=
EXTT12=
EXTT13=
EXTT14=
EXTT15=
EXTT16=
EXTT17=
EXTT18=
EXTT19=
EXTT20=
PLAYORDER=
